#Comment line ignore any data following # character 
#Hierarchical Translation and Rotation (.htr) file 
[Header]	
#Header keywords are followed by a single value 
FileType HTR		#Single word string
DataType HTRS		#Translation followed by rotation and scale data
FileVersion 1		#integer
NumSegments 84		#integer
NumFrames 2		#integer
DataFrameRate 30		#integer, data frame rate in this file
EulerRotationOrder ZYX
CalibrationUnits mm
RotationUnits Degrees
GlobalAxisofGravity Y
BoneLengthAxis Y
ScaleFactor 1.00
[SegmentNames&Hierarchy]
#CHILD	PARENT
MASTER GLOBAL
root MASTER
chest root
L_mid_tent01 root
R_mid_tent01 root
spine01 root
Bip01_Neck chest
L_humerus chest
R_humerus chest
weapon_bone chest
Bip01_Head Bip01_Neck
eye_left_bone Bip01_Head
eye_right_bone Bip01_Head
L_forearm L_humerus
L_front_hand L_forearm
L_weapon_bone L_forearm
L_front_hand01_01 L_front_hand
L_front_hand02_01 L_front_hand
L_front_hand03_01 L_front_hand
L_front_hand01_02 L_front_hand01_01
L_front_hand02_02 L_front_hand02_01
L_front_hand03_02 L_front_hand03_01
R_forearm R_humerus
R_front_hand R_forearm
R_weapon_bone R_forearm
R_front_hand01_01 R_front_hand
R_front_hand02_01 R_front_hand
R_front_hand03_01 R_front_hand
R_front_hand01_02 R_front_hand01_01
R_front_hand02_02 R_front_hand02_01
R_front_hand03_02 R_front_hand03_01
null_rope01_connect L_mid_tent01
Rope1_Seg01 null_rope01_connect
Rope1_Seg02 Rope1_Seg01
Rope1_Seg03 Rope1_Seg02
Rope1_Seg04 Rope1_Seg03
Rope1_Seg05 Rope1_Seg04
Rope1_Seg06 Rope1_Seg05
Rope1_Seg07 Rope1_Seg06
Rope1_Seg09 Rope1_Seg07
L_mid_hand01 Rope1_Seg09
L_mid_hand02 Rope1_Seg09
L_mid_hand03 Rope1_Seg09
null_rope02_connect R_mid_tent01
Rope2_Seg01 null_rope02_connect
Rope2_Seg02 Rope2_Seg01
Rope2_Seg03 Rope2_Seg02
Rope2_Seg04 Rope2_Seg03
Rope2_Seg05 Rope2_Seg04
Rope2_Seg06 Rope2_Seg05
Rope2_Seg07 Rope2_Seg06
Rope2_Seg09 Rope2_Seg07
R_mid_hand01 Rope2_Seg09
R_mid_hand02 Rope2_Seg09
R_mid_hand03 Rope2_Seg09
spine02 spine01
spine03 spine02
pelvis spine03
null_rope03_connect pelvis
null_rope04_connect pelvis
Rope3_Seg01 null_rope03_connect
Rope3_Seg02 Rope3_Seg01
Rope3_Seg03 Rope3_Seg02
Rope3_Seg04 Rope3_Seg03
Rope3_Seg05 Rope3_Seg04
Rope3_Seg06 Rope3_Seg05
Rope3_Seg07 Rope3_Seg06
Rope3_Seg08 Rope3_Seg07
Rope3_Seg09 Rope3_Seg08
R_rear_hand01 Rope3_Seg09
R_rear_hand02 Rope3_Seg09
R_rear_hand03 Rope3_Seg09
Rope4_Seg01 null_rope04_connect
Rope4_Seg02 Rope4_Seg01
Rope4_Seg03 Rope4_Seg02
Rope4_Seg04 Rope4_Seg03
Rope4_Seg05 Rope4_Seg04
Rope4_Seg06 Rope4_Seg05
Rope4_Seg07 Rope4_Seg06
Rope4_Seg08 Rope4_Seg07
Rope4_Seg09 Rope4_Seg08
L_rear_hand01 Rope4_Seg09
L_rear_hand02 Rope4_Seg09
L_rear_hand03 Rope4_Seg09
[BasePosition]
#SegmentName Tx, Ty, Tz, Rx, Ry, Rz, BoneLength
MASTER 0.000000 0.000000 0.000000 -90.000000 0.000000 0.000000 10.000000 
root 0.000000 0.000000 0.000000 0.000000 0.000000 0.000000 10.000000 
chest 0.000000 0.000000 0.000000 0.000000 0.000000 0.000000 10.000000 
L_mid_tent01 0.000000 0.000000 0.000000 0.000000 0.000000 0.000000 10.000000 
R_mid_tent01 0.000000 0.000000 0.000000 0.000000 0.000000 0.000000 10.000000 
spine01 0.000000 0.000000 0.000000 0.000000 0.000000 0.000000 10.000000 
Bip01_Neck 0.000000 0.000000 0.000000 0.000000 0.000000 0.000000 10.000000 
L_humerus 0.000000 0.000000 0.000000 0.000000 0.000000 0.000000 10.000000 
R_humerus 0.000000 0.000000 0.000000 0.000000 0.000000 0.000000 10.000000 
weapon_bone 0.000000 0.000000 0.000000 0.000000 0.000000 0.000000 10.000000 
Bip01_Head 0.000000 0.000000 0.000000 0.000000 0.000000 0.000000 10.000000 
eye_left_bone 0.000000 0.000000 0.000000 0.000000 0.000000 0.000000 10.000000 
eye_right_bone 0.000000 0.000000 0.000000 0.000000 0.000000 0.000000 10.000000 
L_forearm 0.000000 0.000000 0.000000 0.000000 0.000000 0.000000 10.000000 
L_front_hand 0.000000 0.000000 0.000000 0.000000 0.000000 0.000000 10.000000 
L_weapon_bone 0.000000 0.000000 0.000000 0.000000 0.000000 0.000000 10.000000 
L_front_hand01_01 0.000000 0.000000 0.000000 0.000000 0.000000 0.000000 10.000000 
L_front_hand02_01 0.000000 0.000000 0.000000 0.000000 0.000000 0.000000 10.000000 
L_front_hand03_01 0.000000 0.000000 0.000000 0.000000 0.000000 0.000000 10.000000 
L_front_hand01_02 0.000000 0.000000 0.000000 0.000000 0.000000 0.000000 10.000000 
L_front_hand02_02 0.000000 0.000000 0.000000 0.000000 0.000000 0.000000 10.000000 
L_front_hand03_02 0.000000 0.000000 0.000000 0.000000 0.000000 0.000000 10.000000 
R_forearm 0.000000 0.000000 0.000000 0.000000 0.000000 0.000000 10.000000 
R_front_hand 0.000000 0.000000 0.000000 0.000000 0.000000 0.000000 10.000000 
R_weapon_bone 0.000000 0.000000 0.000000 0.000000 0.000000 0.000000 10.000000 
R_front_hand01_01 0.000000 0.000000 0.000000 0.000000 0.000000 0.000000 10.000000 
R_front_hand02_01 0.000000 0.000000 0.000000 0.000000 0.000000 0.000000 10.000000 
R_front_hand03_01 0.000000 0.000000 0.000000 0.000000 0.000000 0.000000 10.000000 
R_front_hand01_02 0.000000 0.000000 0.000000 0.000000 0.000000 0.000000 10.000000 
R_front_hand02_02 0.000000 0.000000 0.000000 0.000000 0.000000 0.000000 10.000000 
R_front_hand03_02 0.000000 0.000000 0.000000 0.000000 0.000000 0.000000 10.000000 
null_rope01_connect 0.000000 0.000000 0.000000 0.000000 0.000000 0.000000 10.000000 
Rope1_Seg01 0.000000 0.000000 0.000000 0.000000 0.000000 0.000000 10.000000 
Rope1_Seg02 0.000000 0.000000 0.000000 0.000000 0.000000 0.000000 10.000000 
Rope1_Seg03 0.000000 0.000000 0.000000 0.000000 0.000000 0.000000 10.000000 
Rope1_Seg04 0.000000 0.000000 0.000000 0.000000 0.000000 0.000000 10.000000 
Rope1_Seg05 0.000000 0.000000 0.000000 0.000000 0.000000 0.000000 10.000000 
Rope1_Seg06 0.000000 0.000000 0.000000 0.000000 0.000000 0.000000 10.000000 
Rope1_Seg07 0.000000 0.000000 0.000000 0.000000 0.000000 0.000000 10.000000 
Rope1_Seg09 0.000000 0.000000 0.000000 0.000000 0.000000 0.000000 10.000000 
L_mid_hand01 0.000000 0.000000 0.000000 0.000000 0.000000 0.000000 10.000000 
L_mid_hand02 0.000000 0.000000 0.000000 0.000000 0.000000 0.000000 10.000000 
L_mid_hand03 0.000000 0.000000 0.000000 0.000000 0.000000 0.000000 10.000000 
null_rope02_connect 0.000000 0.000000 0.000000 0.000000 0.000000 0.000000 10.000000 
Rope2_Seg01 0.000000 0.000000 0.000000 0.000000 0.000000 0.000000 10.000000 
Rope2_Seg02 0.000000 0.000000 0.000000 0.000000 0.000000 0.000000 10.000000 
Rope2_Seg03 0.000000 0.000000 0.000000 0.000000 0.000000 0.000000 10.000000 
Rope2_Seg04 0.000000 0.000000 0.000000 0.000000 0.000000 0.000000 10.000000 
Rope2_Seg05 0.000000 0.000000 0.000000 0.000000 0.000000 0.000000 10.000000 
Rope2_Seg06 0.000000 0.000000 0.000000 0.000000 0.000000 0.000000 10.000000 
Rope2_Seg07 0.000000 0.000000 0.000000 0.000000 0.000000 0.000000 10.000000 
Rope2_Seg09 0.000000 0.000000 0.000000 0.000000 0.000000 0.000000 10.000000 
R_mid_hand01 0.000000 0.000000 0.000000 0.000000 0.000000 0.000000 10.000000 
R_mid_hand02 0.000000 0.000000 0.000000 0.000000 0.000000 0.000000 10.000000 
R_mid_hand03 0.000000 0.000000 0.000000 0.000000 0.000000 0.000000 10.000000 
spine02 0.000000 0.000000 0.000000 0.000000 0.000000 0.000000 10.000000 
spine03 0.000000 0.000000 0.000000 0.000000 0.000000 0.000000 10.000000 
pelvis 0.000000 0.000000 0.000000 0.000000 0.000000 0.000000 10.000000 
null_rope03_connect 0.000000 0.000000 0.000000 0.000000 0.000000 0.000000 10.000000 
null_rope04_connect 0.000000 0.000000 0.000000 0.000000 0.000000 0.000000 10.000000 
Rope3_Seg01 0.000000 0.000000 0.000000 0.000000 0.000000 0.000000 10.000000 
Rope3_Seg02 0.000000 0.000000 0.000000 0.000000 0.000000 0.000000 10.000000 
Rope3_Seg03 0.000000 0.000000 0.000000 0.000000 0.000000 0.000000 10.000000 
Rope3_Seg04 0.000000 0.000000 0.000000 0.000000 0.000000 0.000000 10.000000 
Rope3_Seg05 0.000000 0.000000 0.000000 0.000000 0.000000 0.000000 10.000000 
Rope3_Seg06 0.000000 0.000000 0.000000 0.000000 0.000000 0.000000 10.000000 
Rope3_Seg07 0.000000 0.000000 0.000000 0.000000 0.000000 0.000000 10.000000 
Rope3_Seg08 0.000000 0.000000 0.000000 0.000000 0.000000 0.000000 10.000000 
Rope3_Seg09 0.000000 0.000000 0.000000 0.000000 0.000000 0.000000 10.000000 
R_rear_hand01 0.000000 0.000000 0.000000 0.000000 0.000000 0.000000 10.000000 
R_rear_hand02 0.000000 0.000000 0.000000 0.000000 0.000000 0.000000 10.000000 
R_rear_hand03 0.000000 0.000000 0.000000 0.000000 0.000000 0.000000 10.000000 
Rope4_Seg01 0.000000 0.000000 0.000000 0.000000 0.000000 0.000000 10.000000 
Rope4_Seg02 0.000000 0.000000 0.000000 0.000000 0.000000 0.000000 10.000000 
Rope4_Seg03 0.000000 0.000000 0.000000 0.000000 0.000000 0.000000 10.000000 
Rope4_Seg04 0.000000 0.000000 0.000000 0.000000 0.000000 0.000000 10.000000 
Rope4_Seg05 0.000000 0.000000 0.000000 0.000000 0.000000 0.000000 10.000000 
Rope4_Seg06 0.000000 0.000000 0.000000 0.000000 0.000000 0.000000 10.000000 
Rope4_Seg07 0.000000 0.000000 0.000000 0.000000 0.000000 0.000000 10.000000 
Rope4_Seg08 0.000000 0.000000 0.000000 0.000000 0.000000 0.000000 10.000000 
Rope4_Seg09 0.000000 0.000000 0.000000 0.000000 0.000000 0.000000 10.000000 
L_rear_hand01 0.000000 0.000000 0.000000 0.000000 0.000000 0.000000 10.000000 
L_rear_hand02 0.000000 0.000000 0.000000 0.000000 0.000000 0.000000 10.000000 
L_rear_hand03 0.000000 0.000000 0.000000 0.000000 0.000000 0.000000 10.000000 
#Beginning of Data. Separated by tabs
#Fr	Tx	Ty	Tz	Rx	Ry	Rz	SF
[MASTER]
3 0.000000 0.000000 0.000000 0.001660 0.001660 0.001660 0.000000
4 0.000000 0.000000 0.000000 0.001660 0.001660 0.001660 0.000000
[root]
3 -1.292047 -10.487907 1444.286987 -87.003014 -17.974815 -79.837967 1444.325562
4 -2.637892 -20.226677 1383.749023 -95.183105 -17.918249 -77.944771 1383.899292
[chest]
3 -84.512650 -34.090519 0.000000 2.924318 -0.165233 -179.600189 91.129311
4 -84.512650 -34.090519 0.000000 3.573319 -0.304938 -178.051620 91.129311
[L_mid_tent01]
3 27.299500 22.177549 -249.918274 -1.163785 22.374706 67.542915 252.381165
4 27.299505 22.177540 -249.918274 -0.423703 22.822493 67.744392 252.381165
[R_mid_tent01]
3 23.228794 24.509907 226.238495 170.694199 -23.804073 60.136013 228.744751
4 23.228794 24.509907 226.238495 170.437271 -23.333076 59.475552 228.744751
[spine01]
3 -0.361383 -0.195265 0.000000 0.001845 0.001451 13.654366 0.410763
4 -0.361383 -0.195265 0.000000 0.001845 0.001451 13.654368 0.410763
[Bip01_Neck]
3 165.484543 71.581718 0.000119 176.643677 -1.657967 43.431911 180.302734
4 165.484543 71.581718 0.000119 176.643677 -1.657967 43.431911 180.302734
[L_humerus]
3 -13.983130 -135.272980 -120.471481 148.147247 81.562065 -114.263466 181.680161
4 -13.983130 -135.272980 -120.471481 145.809357 82.341400 -116.474205 181.680161
[R_humerus]
3 -13.983309 -135.273102 125.287651 -172.615295 -66.114616 -92.301689 184.909012
4 -13.983309 -135.273102 125.287651 -172.597244 -66.214561 -92.319778 184.909012
[weapon_bone]
3 235.964890 -300.705902 0.000000 0.000000 -89.951546 -128.212341 382.234833
4 235.964890 -300.705902 0.000000 0.000000 -89.951546 -128.212341 382.234833
[Bip01_Head]
3 213.672256 185.103378 19.678339 4.440152 -1.457900 -43.897720 283.383698
4 213.666748 185.176926 18.730772 4.438267 -1.426505 -43.901623 283.363403
[eye_left_bone]
3 -24.626970 125.451866 -64.772606 0.000000 -90.000000 -99.840431 143.318359
4 -24.626970 125.451866 -64.772606 0.000000 -90.000000 -99.840431 143.318359
[eye_right_bone]
3 -24.626970 125.451866 64.327362 0.000000 -89.965736 80.156380 143.117676
4 -24.626970 125.451866 64.327362 0.000000 -89.972023 80.156380 143.117676
[L_forearm]
3 322.776093 0.000000 -0.000119 0.000035 -0.002347 -91.728592 322.776093
4 322.776093 0.000000 -0.000119 0.000068 -0.002346 -93.316696 322.776093
[L_front_hand]
3 241.149185 -0.042021 -3.300071 -178.667953 -1.835447 -27.422350 241.171753
4 241.149185 -0.042021 -3.300071 -178.667953 -1.835447 -27.422342 241.171753
[L_weapon_bone]
3 156.183838 0.000000 0.000000 0.000014 0.000007 0.000001 156.183838
4 156.183838 0.000000 0.000000 0.000014 0.000007 0.000001 156.183838
[L_front_hand01_01]
3 86.095154 20.947098 -0.655860 -0.279531 -0.529728 65.431473 88.609184
4 86.095154 20.947098 -0.655860 -0.273295 -0.533469 64.985298 88.609184
[L_front_hand02_01]
3 86.935165 -11.437475 24.513514 141.258118 -54.537659 -45.777599 91.046425
4 86.935165 -11.437475 24.513514 140.772385 -54.262844 -45.183468 91.046425
[L_front_hand03_01]
3 86.637497 -14.123976 -20.424902 -141.638611 52.767319 -47.837204 90.126129
4 86.637497 -14.123976 -20.424902 -141.183044 52.494118 -47.265888 90.126129
[L_front_hand01_02]
3 71.020905 -0.000179 0.000030 0.000315 -0.002326 -105.415054 71.020905
4 71.020905 -0.000179 0.000030 0.000315 -0.002326 -105.400543 71.020905
[L_front_hand02_02]
3 71.020927 -0.000119 0.000060 0.000315 -0.002326 -105.415054 71.020927
4 71.020927 -0.000119 0.000060 0.000315 -0.002326 -105.400543 71.020927
[L_front_hand03_02]
3 71.020905 -0.000060 0.000060 0.000315 -0.002326 -105.415054 71.020905
4 71.020905 -0.000060 0.000060 0.000315 -0.002326 -105.400543 71.020905
[R_forearm]
3 322.776428 -0.000060 0.000030 0.213157 -0.011769 -88.051292 322.776428
4 322.776428 -0.000060 0.000030 0.209811 -0.005451 -89.560394 322.776428
[R_front_hand]
3 238.847015 -0.006795 2.210259 -2.635298 -10.645462 -26.312506 238.857239
4 238.847015 -0.006795 2.210259 -2.635298 -10.645461 -26.312506 238.857239
[R_weapon_bone]
3 155.664093 0.002503 -0.000030 0.003487 0.001180 -90.988930 155.664078
4 155.664093 0.002503 -0.000030 0.003487 0.001180 -90.988930 155.664078
[R_front_hand01_01]
3 87.624611 14.231146 22.918642 -140.102493 -53.853168 44.460335 91.683487
4 87.624611 14.231146 22.918642 -138.890259 -53.085796 42.950848 91.683487
[R_front_hand02_01]
3 89.356956 14.367283 -19.491137 140.872437 52.278004 47.106758 92.579636
4 89.356956 14.367283 -19.491137 139.720169 51.522045 45.641415 92.579636
[R_front_hand03_01]
3 87.286232 -22.307278 -0.143439 0.074609 -0.448192 -64.587509 90.091743
4 87.286232 -22.307278 -0.143439 0.065790 -0.451534 -63.409447 90.091743
[R_front_hand01_02]
3 71.020905 0.000060 0.000119 0.002323 -0.000334 106.381706 71.020905
4 71.020905 0.000060 0.000119 0.002323 -0.000334 106.381714 71.020905
[R_front_hand02_02]
3 71.020844 -0.000030 -0.000119 0.002323 -0.000334 106.381706 71.020836
4 71.020844 -0.000030 -0.000119 0.002323 -0.000334 106.381714 71.020836
[R_front_hand03_02]
3 71.020905 0.000000 0.000030 0.002323 -0.000334 106.381706 71.020905
4 71.020905 0.000000 0.000030 0.002323 -0.000334 106.381714 71.020905
[null_rope01_connect]
3 328.732483 0.000000 -0.000238 -169.679413 -74.887657 -148.982864 328.732483
4 328.732483 0.000000 -0.000238 -168.241776 -67.223709 -148.898117 328.732483
[Rope1_Seg01]
3 0.000000 0.000000 0.000000 70.602966 -18.513002 -137.637558 0.000000
4 0.000000 0.000000 0.000000 65.323616 -32.640560 -136.135513 0.000000
[Rope1_Seg02]
3 139.999863 -0.000179 0.000000 7.297207 -1.212172 -8.458759 139.999863
4 139.999863 -0.000179 0.000000 3.735842 -1.287007 -6.838767 139.999863
[Rope1_Seg03]
3 139.999924 0.000060 -0.000060 31.279634 -5.320024 -22.980122 139.999924
4 139.999924 0.000060 -0.000060 14.141241 -4.453744 -17.802309 139.999924
[Rope1_Seg04]
3 139.999924 -0.000060 -0.000119 71.862091 -29.525238 -46.121746 139.999924
4 139.999924 -0.000060 -0.000119 69.627853 -18.177252 -56.934780 139.999924
[Rope1_Seg05]
3 139.999832 0.000119 -0.000060 -5.046614 -22.684830 26.240263 139.999832
4 139.999832 0.000119 -0.000060 6.109357 -31.724621 7.933741 139.999832
[Rope1_Seg06]
3 139.999954 0.000119 -0.000060 -1.114412 -10.829354 18.725052 139.999954
4 139.999954 0.000119 -0.000060 -2.015718 -12.617377 17.831215 139.999954
[Rope1_Seg07]
3 139.999985 0.000060 0.000000 -0.217798 -5.620726 6.686000 139.999985
4 139.999985 0.000060 0.000000 -0.989816 -8.286277 6.617622 139.999985
[Rope1_Seg09]
3 121.602913 0.000119 -0.000089 -89.793175 -1.359789 0.847147 121.602913
4 121.602913 0.000119 -0.000089 -89.793175 -1.359789 0.847147 121.602913
[L_mid_hand01]
3 103.859421 1.038730 8.195221 109.301483 -41.408253 -13.576799 104.187431
4 103.859421 1.038730 8.195221 109.056198 -40.604698 -13.201401 104.187431
[L_mid_hand02]
3 105.572853 -4.139662 -10.864139 -147.153671 31.943630 -38.737034 106.211075
4 105.572853 -4.139662 -10.864139 -146.713593 31.476528 -37.902313 106.211075
[L_mid_hand03]
3 104.641464 17.579376 -3.913581 -14.087292 12.528420 44.741467 106.179977
4 104.641464 17.579376 -3.913581 -14.267233 12.322316 43.898396 106.179977
[null_rope02_connect]
3 328.732849 0.000179 -0.000119 -108.661507 53.137554 22.050806 328.732849
4 328.732849 0.000179 -0.000119 -95.695717 55.629883 35.169113 328.732849
[Rope2_Seg01]
3 0.000076 0.000110 0.000153 34.367718 -13.745084 -48.394672 0.000203
4 0.000076 0.000110 0.000153 15.367558 -5.448439 -38.684254 0.000203
[Rope2_Seg02]
3 139.999741 -0.000060 -0.000119 -65.849640 44.441933 39.103580 139.999756
4 139.999741 -0.000060 -0.000119 -57.349781 42.085236 65.501167 139.999756
[Rope2_Seg03]
3 140.000107 0.000030 0.000000 -23.029551 -24.652874 50.639763 140.000107
4 140.000107 0.000030 0.000000 -7.657049 -24.991045 26.744059 140.000107
[Rope2_Seg04]
3 139.999802 0.000000 -0.000060 0.364985 -3.938255 7.451980 139.999802
4 139.999802 0.000000 -0.000060 0.689477 -1.915046 5.056966 139.999802
[Rope2_Seg05]
3 139.999985 -0.000060 0.000119 1.342758 2.955031 6.268487 139.999985
4 139.999985 -0.000060 0.000119 1.386451 3.876829 4.622566 139.999985
[Rope2_Seg06]
3 139.999893 -0.000030 -0.000119 2.615400 9.743182 10.575617 139.999893
4 139.999893 -0.000030 -0.000119 2.006647 9.102964 6.883949 139.999893
[Rope2_Seg07]
3 139.999893 0.000060 -0.000060 1.272080 6.793343 9.571312 139.999893
4 139.999893 0.000060 -0.000060 0.842614 5.432141 6.015709 139.999893
[Rope2_Seg09]
3 121.338966 0.000089 -0.000060 33.793236 -1.359788 -0.847141 121.338966
4 121.338966 0.000089 -0.000060 33.793236 -1.359788 -0.847141 121.338966
[R_mid_hand01]
3 104.680779 11.144459 -10.335981 -31.399162 37.614391 47.725441 105.778534
4 104.680779 11.144459 -10.335981 -33.085678 36.191685 44.913235 105.778534
[R_mid_hand02]
3 104.070427 2.443552 8.231699 66.339699 -51.820030 19.540783 104.424065
4 104.070427 2.443552 8.231699 67.611237 -49.370296 17.897308 104.424065
[R_mid_hand03]
3 106.028137 -11.221827 -5.996406 -172.206848 13.802570 -57.446243 106.788818
4 106.028137 -11.221827 -5.996406 -171.571182 13.427420 -54.737041 106.788818
[spine02]
3 129.756927 0.001550 0.000119 -1.023899 -3.926965 6.770993 129.756927
4 129.756927 0.001550 0.000119 -1.023900 -3.926965 6.770993 129.756927
[spine03]
3 78.613846 0.087372 -4.898873 1.040681 4.146420 4.212376 78.766380
4 78.613846 0.087372 -4.898873 1.040680 4.146419 4.212375 78.766380
[pelvis]
3 169.435242 0.051022 0.000000 0.019518 -0.190233 -10.721435 169.435257
4 169.435242 0.051022 0.000000 0.019518 -0.190233 -10.721436 169.435257
[null_rope03_connect]
3 -1.257226 -2.466202 137.391083 76.845436 -78.701134 17.071436 137.418976
4 -1.257226 -2.466202 137.391083 116.914932 -78.397446 -22.278284 137.418976
[null_rope04_connect]
3 -1.259640 -2.480268 -137.844437 76.845436 -78.701134 17.071436 137.872513
4 -1.259640 -2.480268 -137.844437 116.914932 -78.397446 -22.278284 137.872513
[Rope3_Seg01]
3 0.000000 0.000000 0.000000 -152.255981 -46.440845 -54.343887 0.000000
4 0.000000 0.000000 0.000000 -155.980835 -40.867985 -44.851566 0.000000
[Rope3_Seg02]
3 139.999924 -0.000119 0.000060 11.096272 -20.286634 -21.930140 139.999924
4 139.999924 -0.000119 0.000060 24.259619 -25.855539 -15.846734 139.999924
[Rope3_Seg03]
3 139.999924 -0.000119 0.000119 29.341656 -17.584887 -5.462991 139.999924
4 139.999924 -0.000119 0.000119 41.469727 -22.739218 3.171022 139.999924
[Rope3_Seg04]
3 139.999924 0.000119 0.000000 68.934479 -18.338724 -10.607994 139.999924
4 139.999924 0.000119 0.000000 42.289856 -22.686707 6.613437 139.999924
[Rope3_Seg05]
3 139.999924 -0.000238 0.000060 75.845490 -31.708082 16.734287 139.999924
4 139.999924 -0.000238 0.000060 32.172611 -23.960455 27.107492 139.999924
[Rope3_Seg06]
3 139.999893 -0.000119 -0.000060 4.945115 4.545298 14.458293 139.999893
4 139.999893 -0.000119 -0.000060 5.730157 -0.845347 14.258232 139.999893
[Rope3_Seg07]
3 139.999771 0.000060 -0.000119 1.569308 2.820858 6.505361 139.999771
4 139.999771 0.000060 -0.000119 2.118204 0.424115 6.894315 139.999771
[Rope3_Seg08]
3 139.999985 -0.000060 0.000000 0.949330 1.581582 3.408439 139.999985
4 139.999985 -0.000060 0.000000 1.190773 0.359733 3.636356 139.999985
[Rope3_Seg09]
3 90.185997 -0.000179 -0.000060 89.793228 -1.359877 -0.847183 90.185997
4 90.185997 -0.000179 -0.000060 89.793228 -1.359877 -0.847183 90.185997
[R_rear_hand01]
3 103.366196 -6.073594 -10.757982 -168.130341 21.777140 -49.871906 104.101845
4 103.366196 -6.073594 -10.757982 -167.001480 21.149061 -46.791374 104.101845
[R_rear_hand02]
3 100.509819 12.039542 -7.992327 -26.694445 29.195726 47.151855 101.543350
4 100.509819 12.039542 -7.992327 -28.108641 27.848612 44.189137 101.543350
[R_rear_hand03]
3 101.539970 5.215704 5.435467 81.113556 -50.109848 10.702383 101.819031
4 101.539970 5.215704 5.435467 81.609138 -47.214466 10.038949 101.819031
[Rope4_Seg01]
3 -0.000017 -0.000073 -0.000139 42.591961 -16.705471 -80.306824 0.000158
4 -0.000015 -0.000071 -0.000133 42.317734 -17.805265 -80.301270 0.000151
[Rope4_Seg02]
3 139.999985 0.000060 0.000119 1.868714 -28.424870 -7.543034 139.999985
4 139.999985 0.000060 0.000119 1.441495 -30.270267 -5.205966 139.999985
[Rope4_Seg03]
3 139.999924 0.000000 -0.000238 8.412800 -34.551315 -9.133128 139.999924
4 139.999924 0.000000 -0.000238 8.548015 -32.600239 -4.222473 139.999924
[Rope4_Seg04]
3 139.999985 0.000000 0.000119 9.930604 -16.799450 -2.215942 139.999985
4 139.999985 0.000000 0.000119 10.368493 -15.650681 0.226985 139.999985
[Rope4_Seg05]
3 139.999802 -0.000060 -0.000119 25.752142 -15.543855 -0.542170 139.999802
4 139.999802 -0.000060 -0.000119 11.103246 -11.922088 -0.861543 139.999802
[Rope4_Seg06]
3 139.999924 0.000000 0.000060 95.166084 -20.566336 8.845867 139.999924
4 139.999924 0.000000 0.000060 45.546417 -15.600024 0.022389 139.999924
[Rope4_Seg07]
3 139.999802 0.000000 0.000000 17.165678 7.200793 12.726235 139.999802
4 139.999802 0.000000 0.000000 62.732555 -7.621040 8.932996 139.999802
[Rope4_Seg08]
3 139.999924 0.000000 0.000119 2.470278 5.700418 5.465891 139.999924
4 139.999924 0.000000 0.000119 13.575300 2.838836 6.590291 139.999924
[Rope4_Seg09]
3 90.185791 0.000060 0.000060 -135.617828 2.228885 0.850567 90.185791
4 90.185791 0.000060 0.000060 -135.617828 2.228885 0.850567 90.185791
[L_rear_hand01]
3 101.696655 -8.392275 -7.654577 -31.684452 -23.583008 144.025742 102.329041
4 101.696655 -8.392275 -7.654577 -31.684452 -23.583012 144.025742 102.329041
[L_rear_hand02]
3 102.726799 -1.568258 5.773216 82.701553 38.753956 171.553619 102.900848
4 102.726799 -1.568258 5.773216 82.701546 38.753956 171.553619 102.900848
[L_rear_hand03]
3 104.552910 9.721220 -10.420293 -163.975388 -19.004416 -142.009323 105.519653
4 104.552910 9.721220 -10.420293 -163.975388 -19.004417 -142.009338 105.519653
